<?xml version="1.0" encoding="UTF-8" standalone="no"?>
<!-- Created with Inkscape (http://www.inkscape.org/) -->
<svg id="svg3051" xmlns="http://www.w3.org/2000/svg" version="1.1" space="preserve" xmlns:cc="http://creativecommons.org/ns#" xmlns:dc="http://purl.org/dc/elements/1.1/" height="100%" viewBox="0 0 88 31" width="100%" xmlns:rdf="http://www.w3.org/1999/02/22-rdf-syntax-ns#">
 <metadata id="metadata3077">
  <rdf:RDF>
   <cc:Work rdf:about="">
    <dc:format>image/svg+xml</dc:format>
    <dc:type rdf:resource="http://purl.org/dc/dcmitype/StillImage"/>
    <dc:title/>
   </cc:Work>
  </rdf:RDF>
 </metadata>
 <rect id="rect3601" height="29.084" width="86.084" stroke="#000" stroke-linecap="round" y="0.958" x="0.958" stroke-width="1.916" fill="#fff"/>
 <text id="obj-start" style="word-spacing:0px;letter-spacing:0px" space="preserve" font-size="22.643px" line-height="125%" y="22.255196" x="51.556633" font-family="Bitstream Vera Sans Mono" fill="#000000">
  <tspan id="tspan3093" y="22.255196" x="51.556633">{</tspan>
 </text>
 <text id="obj-end" style="word-spacing:0px;letter-spacing:0px" space="preserve" font-size="22.643px" line-height="125%" y="22.255196" x="71.690315" font-family="Bitstream Vera Sans Mono" fill="#000000">
  <tspan id="tspan3097" font-size="22.643px" line-height="125%" y="22.255196" x="71.690315" font-family="Bitstream Vera Sans Mono">}</tspan>
 </text>
 <g id="g3212" transform="matrix(.15724 0 0 .15724 60.327 7.49)">
  <g id="g3186">
   <path id="path3188" fill="#0c479c" d="m84.45 66.836c-0.636-0.337-1.284-0.624-1.936-0.879l0.466-0.038s-4.151-1.838-4.514-15.18c-0.359-13.344 3.957-15.62 3.957-15.62l-0.62 0.027c3.261-1.673 6.066-4.316 7.917-7.804 4.823-9.072 1.372-20.341-7.702-25.165-9.078-4.818-20.344-1.375-25.164 7.706-1.982 3.725-2.545 7.817-1.919 11.683l-0.212-0.326s1.093 4.842-10.258 11.888c-11.349 7.05-16.469 3.54-16.469 3.54l0.326 0.48c-0.325-0.201-0.636-0.406-0.975-0.583-9.078-4.824-20.347-1.377-25.169 7.701-4.82 9.077-1.372 20.341 7.703 25.167 6.766 3.591 14.744 2.59 20.365-1.914l-0.122 0.236s4.132-3.399 16.04 2.994c9.4 5.044 10.796 9.988 10.975 11.846-0.246 6.893 3.347 13.654 9.847 17.107 9.075 4.825 20.344 1.375 25.164-7.701 4.824-9.075 1.378-20.345-7.7-25.165zm-20.984 2.446c-1.504 0.532-5.801 1.121-14.847-3.73-9.797-5.26-11.251-9.654-11.464-10.973 0.139-1.6 0.05-3.197-0.223-4.755l0.06 0.09s-0.798-4.274 10.412-11.235c10.033-6.228 14.594-4.989 15.443-4.664 0.546 0.371 1.112 0.717 1.706 1.033 1.129 0.6 2.293 1.07 3.472 1.418 1.38 1.314 3.92 5.045 4.184 14.854 0.27 9.883-2.634 13.694-4.217 15.042-1.63 0.738-3.156 1.723-4.526 2.92z"/>
   <g id="g3190">
    <path id="path3192" fill="#fff" d="m62.239 8.1c-5.415 5.923-5.529 14.636-0.312 19.566-2.579-2.483-2.523-7.651 0.083-12.597 0.335-0.443 1.306-1.49 2.725-1.014 0.143 0.049 0.237 0.062 0.292 0.053 0.321 0.069 0.65 0.11 0.99 0.095 2.155-0.098 3.822-1.921 3.725-4.077-0.044-0.967-0.445-1.823-1.065-2.48 5.002-3.277 10.742-3.652 13.094-1.504l0.09 0.006c-5.373-4.906-14.156-4.029-19.622 1.952z"/>
   </g>
   <g id="g3194" fill="#fff">
    <path id="path3196" d="m7.632 62.845c-0.046-0.047-0.093-0.102-0.141-0.148 0.03 0.031 0.059 0.069 0.095 0.102l0.046 0.046z"/>
    <path id="path3198" d="m7.805 43.13c-5.416 5.924-5.529 14.635-0.313 19.566-2.578-2.484-2.523-7.652 0.083-12.598 0.336-0.444 1.308-1.49 2.727-1.014 0.141 0.049 0.236 0.061 0.292 0.054 0.321 0.069 0.651 0.11 0.99 0.095 2.156-0.099 3.822-1.922 3.725-4.076-0.045-0.967-0.445-1.824-1.063-2.48 4.999-3.276 10.74-3.654 13.092-1.505l0.089 0.008c-5.373-4.909-14.158-4.033-19.622 1.95z"/>
   </g>
   <g id="g3200" fill="#fff">
    <path id="path3202" d="m65.256 92.504c-0.047-0.048-0.094-0.102-0.141-0.148 0.029 0.031 0.059 0.069 0.094 0.101l0.047 0.047z"/>
    <path id="path3204" d="m65.428 72.786c-5.416 5.926-5.529 14.639-0.313 19.569-2.58-2.483-2.523-7.653 0.082-12.597 0.336-0.445 1.307-1.49 2.727-1.014 0.143 0.047 0.235 0.061 0.292 0.053 0.32 0.069 0.651 0.11 0.99 0.096 2.154-0.1 3.82-1.924 3.723-4.08-0.044-0.966-0.445-1.822-1.063-2.479 5-3.275 10.739-3.652 13.093-1.504l0.088 0.007c-5.37-4.907-14.156-4.03-19.619 1.949z"/>
   </g>
  </g>
 </g>
 <image/>
 <text id="text4371" style="word-spacing:0px;letter-spacing:0px" font-weight="bold" space="preserve" font-size="11px" line-height="125%" y="19.410156" x="4.5615234" font-family="Roboto" fill="#000000">
  <tspan id="tspan4373" font-weight="bold" font-size="11px" line-height="125%" y="19.410156" x="4.5615234" font-family="Roboto">JSON-LD</tspan>
 </text>
</svg>
